<svg width="72" height="72" viewBox="0 0 72 72" fill="none" xmlns="http://www.w3.org/2000/svg">
<g filter="url(#filter0_d_1_20116)">
<rect x="10" y="4" width="52" height="52" rx="26" fill="white" shape-rendering="crispEdges"/>
<g opacity="0.3">
<path d="M36.3042 18C40.1702 18 43.3042 21.134 43.3042 25V28.1711C43.3042 29.2716 43.9894 30.2346 44.6351 31.1257C45.1107 31.7821 45.3911 32.5894 45.3911 33.4619C45.3911 35.3854 44.017 37.0356 42.1118 37.2998C40.22 37.5621 37.856 37.8261 36.0005 37.8262C34.1449 37.8262 31.7802 37.5622 29.8882 37.2998C27.983 37.0356 26.6089 35.3853 26.6089 33.4619C26.6089 32.5894 26.8893 31.7821 27.3649 31.1257C28.0106 30.2346 28.6958 29.2716 28.6958 28.1711V25C28.6958 21.134 31.8298 18 35.6958 18H36.3042Z" fill="#014DA9"/>
<path d="M43.3042 25H44.0542H43.3042ZM45.3911 33.4619H46.1411V33.4619L45.3911 33.4619ZM42.1118 37.2998L42.2148 38.0427H42.2148L42.1118 37.2998ZM36.0005 37.8262V38.5762H36.0005L36.0005 37.8262ZM29.8882 37.2998L29.7852 38.0427L29.7852 38.0427L29.8882 37.2998ZM26.6089 33.4619L25.8589 33.4619V33.4619H26.6089ZM27.3649 31.1257L26.7576 30.6856L27.3649 31.1257ZM44.6351 31.1257L44.0278 31.5658L44.6351 31.1257ZM36.3042 18V18.75C39.756 18.75 42.5542 21.5482 42.5542 25H43.3042H44.0542C44.0542 20.7198 40.5844 17.25 36.3042 17.25V18ZM43.3042 25H42.5542V28.1711H43.3042H44.0542V25H43.3042ZM44.6351 31.1257L44.0278 31.5658C44.4137 32.0985 44.6411 32.7526 44.6411 33.4619L45.3911 33.4619L46.1411 33.4619C46.1411 32.4262 45.8077 31.4658 45.2424 30.6857L44.6351 31.1257ZM45.3911 33.4619H44.6411C44.6411 35.0286 43.5259 36.3465 42.0088 36.5569L42.1118 37.2998L42.2148 38.0427C44.5082 37.7247 46.1411 35.7421 46.1411 33.4619H45.3911ZM42.1118 37.2998L42.0088 36.5569C40.123 36.8184 37.8016 37.0761 36.0005 37.0762L36.0005 37.8262L36.0005 38.5762C37.9104 38.5761 40.3169 38.3059 42.2148 38.0427L42.1118 37.2998ZM36.0005 37.8262V37.0762C34.1993 37.0762 31.8771 36.8184 29.9912 36.5569L29.8882 37.2998L29.7852 38.0427C31.6832 38.3059 34.0905 38.5762 36.0005 38.5762V37.8262ZM29.8882 37.2998L29.9912 36.5569C28.4741 36.3465 27.3589 35.0286 27.3589 33.4619H26.6089H25.8589C25.8589 35.7421 27.4919 37.7246 29.7852 38.0427L29.8882 37.2998ZM26.6089 33.4619L27.3589 33.4619C27.3589 32.7526 27.5863 32.0985 27.9723 31.5658L27.3649 31.1257L26.7576 30.6856C26.1923 31.4658 25.8589 32.4262 25.8589 33.4619L26.6089 33.4619ZM28.6958 28.1711H29.4458V25H28.6958H27.9458V28.1711H28.6958ZM28.6958 25H29.4458C29.4458 21.5482 32.244 18.75 35.6958 18.75V18V17.25C31.4156 17.25 27.9458 20.7198 27.9458 25H28.6958ZM35.6958 18V18.75H36.3042V18V17.25H35.6958V18ZM27.3649 31.1257L27.9723 31.5658C28.5865 30.718 29.4458 29.5566 29.4458 28.1711H28.6958H27.9458C27.9458 28.9866 27.4347 29.7511 26.7576 30.6856L27.3649 31.1257ZM43.3042 28.1711H42.5542C42.5542 29.5566 43.4135 30.718 44.0278 31.5658L44.6351 31.1257L45.2424 30.6857C44.5653 29.7511 44.0542 28.9866 44.0542 28.1711H43.3042Z" fill="#014DA9"/>
</g>
<path d="M38.6088 40.6006C38.0479 41.4441 37.0889 42 36.0001 42C34.9113 42 33.9522 41.4441 33.3914 40.6006" stroke="#014DA9" stroke-width="1.5" stroke-linecap="round"/>
</g>
<defs>
<filter id="filter0_d_1_20116" x="0" y="0" width="72" height="72" filterUnits="userSpaceOnUse" color-interpolation-filters="sRGB">
<feFlood flood-opacity="0" result="BackgroundImageFix"/>
<feColorMatrix in="SourceAlpha" type="matrix" values="0 0 0 0 0 0 0 0 0 0 0 0 0 0 0 0 0 0 127 0" result="hardAlpha"/>
<feOffset dy="6"/>
<feGaussianBlur stdDeviation="5"/>
<feComposite in2="hardAlpha" operator="out"/>
<feColorMatrix type="matrix" values="0 0 0 0 0.117647 0 0 0 0 0.0627451 0 0 0 0 0.137255 0 0 0 0.2 0"/>
<feBlend mode="normal" in2="BackgroundImageFix" result="effect1_dropShadow_1_20116"/>
<feBlend mode="normal" in="SourceGraphic" in2="effect1_dropShadow_1_20116" result="shape"/>
</filter>
</defs>
</svg>
